<svg width="25" height="25" viewBox="0 0 25 25" fill="none" xmlns="http://www.w3.org/2000/svg">
<path d="M14.3538 0.856201C13.1579 0.856201 11.9622 1.31252 11.0497 2.22502L7.23301 6.04989L9.60768 8.42456C10.4243 7.84123 11.4249 7.50008 12.4999 7.50008C15.2583 7.50008 17.4999 9.74175 17.4999 12.5001C17.4999 13.5751 17.1588 14.5757 16.5755 15.3923L18.9257 17.741L22.7408 13.9259C24.5658 12.1009 24.5658 9.14116 22.7408 7.31616L22.5585 7.13387C21.9502 7.8672 21.0249 8.33341 19.9999 8.33341C18.1583 8.33341 16.6666 6.84175 16.6666 5.00008C16.6666 3.97508 17.1328 3.05002 17.8661 2.43335L17.6578 2.22502C16.7453 1.31252 15.5496 0.856201 14.3538 0.856201ZM19.0575 3.62476C18.6242 3.92476 18.3333 4.43341 18.3333 5.00008C18.3333 5.91675 19.0833 6.66675 19.9999 6.66675C20.5666 6.66675 21.0669 6.38393 21.3753 5.9506L19.0575 3.62476ZM6.04974 7.23315L2.20859 11.0662C0.383594 12.8912 0.383594 15.8509 2.20859 17.6759L2.42506 17.8842C3.04173 17.1425 3.9666 16.6667 4.99993 16.6667C6.8416 16.6667 8.33327 18.1584 8.33327 20.0001C8.33327 21.0334 7.85749 21.9583 7.11582 22.5749L7.29974 22.7589C9.12474 24.5839 12.0828 24.5839 13.9078 22.7589L17.7408 18.9259L15.3922 16.5756C14.5755 17.1589 13.5749 17.5001 12.4999 17.5001C9.7416 17.5001 7.49993 15.2584 7.49993 12.5001C7.49993 11.4251 7.84108 10.4245 8.42441 9.60783L6.04974 7.23315ZM12.4999 9.16675C11.6159 9.16675 10.768 9.51794 10.1429 10.1431C9.51779 10.7682 9.1666 11.616 9.1666 12.5001C9.1666 13.3841 9.51779 14.232 10.1429 14.8571C10.768 15.4822 11.6159 15.8334 12.4999 15.8334C13.384 15.8334 14.2318 15.4822 14.857 14.8571C15.4821 14.232 15.8333 13.3841 15.8333 12.5001C15.8333 11.616 15.4821 10.7682 14.857 10.1431C14.2318 9.51794 13.384 9.16675 12.4999 9.16675ZM4.99993 18.3334C4.42493 18.3334 3.91667 18.6339 3.60833 19.0756L5.92441 21.3835C6.36608 21.0835 6.6666 20.5751 6.6666 20.0001C6.6666 19.0834 5.9166 18.3334 4.99993 18.3334Z" fill="#148EFF"/>
</svg>
