<svg width="25" height="25" viewBox="0 0 25 25" fill="none" xmlns="http://www.w3.org/2000/svg">
<path d="M20.4997 2.5C20.4997 2.5 17.4473 14.7613 16.5007 15.4997C14.624 17.0855 5.68983 16.6667 4.86816 16.6667C3.41233 16.6667 2.5 17.6926 2.5 18.8509V20.1074C2.5 21.5524 3.12044 22.5 5.12044 22.5C9.12044 22.5 13.7107 22.0037 16.1849 20.9212C18.2199 20.0312 18.2367 18.7633 22.5 2.5H20.4997ZM7.08333 6.66667C5.94772 6.66667 4.9158 6.86106 4.09342 7.22656C3.68224 7.40931 3.31837 7.63349 3.02409 7.94271C2.72981 8.25193 2.5 8.68322 2.5 9.16667V10.8333C2.5 12.475 4.80583 13.3333 7.08333 13.3333C9.36083 13.3333 11.6667 12.475 11.6667 10.8333V9.16667C11.6667 8.68322 11.4369 8.25193 11.1426 7.94271C10.8483 7.63349 10.4844 7.40931 10.0732 7.22656C9.25087 6.86106 8.21895 6.66667 7.08333 6.66667ZM7.08333 8.33333C8.01879 8.33333 8.8613 8.51228 9.39616 8.75C9.66359 8.86886 9.84965 9.00222 9.9349 9.0918C10.0201 9.18137 10 9.18988 10 9.16667C10 9.14345 10.0201 9.15197 9.9349 9.24154C9.84966 9.33111 9.66359 9.46447 9.39616 9.58333C8.8613 9.82105 8.01879 10 7.08333 10C6.14788 10 5.30537 9.82105 4.77051 9.58333C4.50308 9.46447 4.31701 9.33111 4.23177 9.24154C4.14653 9.15196 4.16667 9.14345 4.16667 9.16667C4.16667 9.18988 4.14653 9.18136 4.23177 9.0918C4.31701 9.00222 4.50308 8.86886 4.77051 8.75C5.30537 8.51228 6.14788 8.33333 7.08333 8.33333Z" fill="#148EFF"/>
</svg>
