<svg width="20" height="20" viewBox="0 0 20 20" fill="none" xmlns="http://www.w3.org/2000/svg">
<path d="M11.483 0.684814C10.5264 0.684814 9.56979 1.04987 8.83979 1.77987L5.78641 4.83976L7.68614 6.7395C8.33948 6.27283 9.13995 5.99992 9.99995 5.99992C12.2066 5.99992 13.9999 7.79325 13.9999 9.99992C13.9999 10.8599 13.727 11.6604 13.2604 12.3137L15.1406 14.1926L18.1927 11.1405C19.6527 9.68054 19.6527 7.31278 18.1927 5.85278L18.0468 5.70695C17.5602 6.29362 16.8199 6.66658 15.9999 6.66658C14.5266 6.66658 13.3333 5.47325 13.3333 3.99992C13.3333 3.17992 13.7062 2.43987 14.2929 1.94653L14.1262 1.77987C13.3962 1.04987 12.4397 0.684814 11.483 0.684814ZM15.246 2.89966C14.8994 3.13966 14.6666 3.54659 14.6666 3.99992C14.6666 4.73325 15.2666 5.33325 15.9999 5.33325C16.4533 5.33325 16.8535 5.107 17.1002 4.76033L15.246 2.89966ZM4.83979 5.78638L1.76687 8.85278C0.306875 10.3128 0.306875 12.6805 1.76687 14.1405L1.94005 14.3072C2.43339 13.7139 3.17328 13.3333 3.99995 13.3333C5.47328 13.3333 6.66661 14.5266 6.66661 15.9999C6.66661 16.8266 6.28599 17.5665 5.69266 18.0598L5.83979 18.2069C7.29979 19.6669 9.66625 19.6669 11.1262 18.2069L14.1927 15.1405L12.3137 13.2603C11.6604 13.727 10.8599 13.9999 9.99995 13.9999C7.79328 13.9999 5.99995 12.2066 5.99995 9.99992C5.99995 9.13992 6.27286 8.33945 6.73953 7.68612L4.83979 5.78638ZM9.99995 7.33325C9.2927 7.33325 8.61443 7.6142 8.11433 8.1143C7.61423 8.6144 7.33328 9.29267 7.33328 9.99992C7.33328 10.7072 7.61423 11.3854 8.11433 11.8855C8.61443 12.3856 9.2927 12.6666 9.99995 12.6666C10.7072 12.6666 11.3855 12.3856 11.8856 11.8855C12.3857 11.3854 12.6666 10.7072 12.6666 9.99992C12.6666 9.29267 12.3857 8.6144 11.8856 8.1143C11.3855 7.6142 10.7072 7.33325 9.99995 7.33325ZM3.99995 14.6666C3.53995 14.6666 3.13333 14.907 2.88667 15.2603L4.73953 17.1067C5.09286 16.8667 5.33328 16.4599 5.33328 15.9999C5.33328 15.2666 4.73328 14.6666 3.99995 14.6666Z" fill="#148EFF"/>
</svg>
