<svg width="20" height="20" viewBox="0 0 20 20" fill="none" xmlns="http://www.w3.org/2000/svg">
<g clip-path="url(#clip0_1123_76186)">
<path d="M2.36409 8.58586C2.05142 8.89853 2.05142 9.40455 2.36409 9.71723L10.2837 17.6368C10.5964 17.9495 11.1024 17.9495 11.4151 17.6368L11.9807 17.0711C12.2934 16.7585 12.2934 16.2524 11.9807 15.9398L8.86948 12.8285L12.8293 8.8687L15.9405 11.98C16.2532 12.2926 16.7592 12.2926 17.0719 11.98L17.6376 11.4143C17.9503 11.1016 17.9503 10.5956 17.6376 10.2829L9.71801 2.36332C9.40533 2.05064 8.89931 2.05064 8.58663 2.36332L8.02095 2.929C7.70828 3.24168 7.70828 3.7477 8.02095 4.06037L11.1322 7.17164L7.17242 11.1314L4.06115 8.02017C3.74848 7.7075 3.24245 7.7075 2.92978 8.02017L2.36409 8.58586ZM1.51557 11.6971C1.20289 12.0098 1.20289 12.5158 1.51557 12.8285L7.17242 18.4854C7.48509 18.798 7.99112 18.798 8.30379 18.4854L9.15232 17.6368L2.36409 10.8486L1.51557 11.6971ZM10.8494 2.36332L17.6376 9.15154L18.4861 8.30301C18.7988 7.99034 18.7988 7.48432 18.4861 7.17164L12.8293 1.51479C12.5166 1.20211 12.0106 1.20212 11.6979 1.51479L10.8494 2.36332ZM2.36409 15.9398C2.20831 16.0956 2.20831 16.3497 2.36409 16.5055L3.49547 17.6368C3.65125 17.7926 3.90537 17.7926 4.06115 17.6368L4.62684 17.0711L2.92978 15.3741L2.36409 15.9398ZM15.3749 2.929L17.0719 4.62606L17.6376 4.06037C17.7934 3.90459 17.7934 3.65047 17.6376 3.49469L16.5062 2.36332C16.3504 2.20753 16.0963 2.20753 15.9405 2.36332L15.3749 2.929Z" fill="#148EFF"/>
</g>
<defs>
<clipPath id="clip0_1123_76186">
<rect width="20" height="20" fill="white"/>
</clipPath>
</defs>
</svg>
