<svg width="20" height="20" viewBox="0 0 20 20" fill="none" xmlns="http://www.w3.org/2000/svg">
<path d="M16.3997 2C16.3997 2 13.9579 11.8091 13.2005 12.3997C11.6992 13.6684 4.55186 13.3333 3.89453 13.3333C2.72986 13.3333 2 14.1541 2 15.0807V16.0859C2 17.2419 2.49635 18 4.09635 18C7.29635 18 10.9686 17.603 12.9479 16.737C14.5759 16.025 14.5893 15.0107 18 2H16.3997ZM5.66667 5.33333C4.75817 5.33333 3.93264 5.48885 3.27474 5.78125C2.94579 5.92745 2.65469 6.10679 2.41927 6.35417C2.18385 6.60154 2 6.94657 2 7.33333V8.66667C2 9.98 3.84467 10.6667 5.66667 10.6667C7.48867 10.6667 9.33333 9.98 9.33333 8.66667V7.33333C9.33333 6.94657 9.14948 6.60154 8.91406 6.35417C8.67864 6.10679 8.38754 5.92745 8.05859 5.78125C7.4007 5.48885 6.57516 5.33333 5.66667 5.33333ZM5.66667 6.66667C6.41503 6.66667 7.08904 6.80983 7.51693 7C7.73087 7.09509 7.87972 7.20178 7.94792 7.27344C8.01611 7.3451 8 7.3519 8 7.33333C8 7.31476 8.01612 7.32158 7.94792 7.39323C7.87973 7.46489 7.73087 7.57158 7.51693 7.66667C7.08904 7.85684 6.41503 8 5.66667 8C4.9183 8 4.2443 7.85684 3.81641 7.66667C3.60246 7.57158 3.45361 7.46489 3.38542 7.39323C3.31722 7.32157 3.33333 7.31476 3.33333 7.33333C3.33333 7.35191 3.31722 7.34509 3.38542 7.27344C3.45361 7.20178 3.60246 7.09509 3.81641 7C4.2443 6.80983 4.9183 6.66667 5.66667 6.66667Z" fill="#148EFF"/>
</svg>
