<svg width="20" height="20" viewBox="0 0 20 20" fill="none" xmlns="http://www.w3.org/2000/svg">
<path d="M0.784258 0.000389429C0.492445 -0.00871098 0.209919 0.150554 0.0799324 0.425305C-0.0933825 0.792615 0.0696543 1.22687 0.445753 1.39613C0.554636 1.4454 2.64935 2.36451 6.50374 2.75377V1.27895C3.00098 0.902857 1.09746 0.0782766 1.07399 0.0680329C0.979963 0.0257167 0.881529 0.00342293 0.784258 0.000389429ZM8.75133 0.000389429C8.06307 0.000389429 7.50267 0.547208 7.50267 1.21988V3.90275H12.4973V1.21988C12.4973 0.547208 11.9369 0.000389429 11.2487 0.000389429H8.75133ZM19.2148 0.000389429C19.1176 0.00349912 19.0195 0.0257167 18.926 0.0680329C18.902 0.0787644 17.0145 0.906226 13.4963 1.28085V2.75281C17.3506 2.36355 19.4454 1.44491 19.5542 1.39613C19.9303 1.22687 20.0934 0.792615 19.9201 0.425305C19.7901 0.149822 19.5063 -0.00893966 19.2148 0.000389429ZM7.21391 4.87834C5.87534 6.37392 5.00534 8.77876 5.00534 10.9758C5.00534 17.1766 9.43125 19.7907 9.61955 19.899C9.73692 19.9663 9.86864 20 10 20C10.1314 20 10.2631 19.9663 10.3805 19.899C10.5688 19.7907 14.9947 17.1766 14.9947 10.9758C14.9947 8.77876 14.1247 6.37392 12.7861 4.87834H7.21391ZM3.2572 7.31732C3.0585 7.31732 2.86794 7.39441 2.72744 7.53163C2.58694 7.66885 2.508 7.85496 2.508 8.04901C2.508 8.24307 2.58694 8.42918 2.72744 8.5664C2.86794 8.70362 3.0585 8.78071 3.2572 8.78071C3.4559 8.78071 3.64646 8.70362 3.78697 8.5664C3.92747 8.42918 4.0064 8.24307 4.0064 8.04901C4.0064 7.85496 3.92747 7.66885 3.78697 7.53163C3.64646 7.39441 3.4559 7.31732 3.2572 7.31732ZM16.7428 7.31732C16.5441 7.31732 16.3535 7.39441 16.213 7.53163C16.0725 7.66885 15.9936 7.85496 15.9936 8.04901C15.9936 8.24307 16.0725 8.42918 16.213 8.5664C16.3535 8.70362 16.5441 8.78071 16.7428 8.78071C16.9415 8.78071 17.1321 8.70362 17.2726 8.5664C17.4131 8.42918 17.492 8.24307 17.492 8.04901C17.492 7.85496 17.4131 7.66885 17.2726 7.53163C17.1321 7.39441 16.9415 7.31732 16.7428 7.31732ZM0.75987 10.2441C0.660592 10.2427 0.562025 10.2606 0.469898 10.2968C0.37777 10.3329 0.293919 10.3866 0.223217 10.4547C0.152515 10.5228 0.0963731 10.6039 0.0580532 10.6934C0.0197334 10.7828 0 10.8788 0 10.9758C0 11.0728 0.0197334 11.1688 0.0580532 11.2582C0.0963731 11.3477 0.152515 11.4288 0.223217 11.4969C0.293919 11.5649 0.37777 11.6186 0.469898 11.6548C0.562025 11.6909 0.660592 11.7088 0.75987 11.7075H2.75774C2.85701 11.7088 2.95558 11.6909 3.04771 11.6548C3.13984 11.6186 3.22369 11.5649 3.29439 11.4969C3.36509 11.4288 3.42123 11.3477 3.45955 11.2582C3.49787 11.1688 3.51761 11.0728 3.51761 10.9758C3.51761 10.8788 3.49787 10.7828 3.45955 10.6934C3.42123 10.6039 3.36509 10.5228 3.29439 10.4547C3.22369 10.3866 3.13984 10.3329 3.04771 10.2968C2.95558 10.2606 2.85701 10.2427 2.75774 10.2441H0.75987ZM17.2423 10.2441C17.143 10.2427 17.0444 10.2606 16.9523 10.2968C16.8602 10.3329 16.7763 10.3866 16.7056 10.4547C16.6349 10.5228 16.5788 10.6039 16.5404 10.6934C16.5021 10.7828 16.4824 10.8788 16.4824 10.9758C16.4824 11.0728 16.5021 11.1688 16.5404 11.2582C16.5788 11.3477 16.6349 11.4288 16.7056 11.4969C16.7763 11.5649 16.8602 11.6186 16.9523 11.6548C17.0444 11.6909 17.143 11.7088 17.2423 11.7075H19.2401C19.3394 11.7088 19.438 11.6909 19.5301 11.6548C19.6222 11.6186 19.7061 11.5649 19.7768 11.4969C19.8475 11.4288 19.9036 11.3477 19.9419 11.2582C19.9803 11.1688 20 11.0728 20 10.9758C20 10.8788 19.9803 10.7828 19.9419 10.6934C19.9036 10.6039 19.8475 10.5228 19.7768 10.4547C19.7061 10.3866 19.6222 10.3329 19.5301 10.2968C19.438 10.2606 19.3394 10.2427 19.2401 10.2441H17.2423ZM3.2572 13.1709C3.0585 13.1709 2.86794 13.248 2.72744 13.3852C2.58694 13.5224 2.508 13.7085 2.508 13.9026C2.508 14.0966 2.58694 14.2827 2.72744 14.4199C2.86794 14.5572 3.0585 14.6343 3.2572 14.6343C3.4559 14.6343 3.64646 14.5572 3.78697 14.4199C3.92747 14.2827 4.0064 14.0966 4.0064 13.9026C4.0064 13.7085 3.92747 13.5224 3.78697 13.3852C3.64646 13.248 3.4559 13.1709 3.2572 13.1709ZM16.7428 13.1709C16.5441 13.1709 16.3535 13.248 16.213 13.3852C16.0725 13.5224 15.9936 13.7085 15.9936 13.9026C15.9936 14.0966 16.0725 14.2827 16.213 14.4199C16.3535 14.5572 16.5441 14.6343 16.7428 14.6343C16.9415 14.6343 17.1321 14.5572 17.2726 14.4199C17.4131 14.2827 17.492 14.0966 17.492 13.9026C17.492 13.7085 17.4131 13.5224 17.2726 13.3852C17.1321 13.248 16.9415 13.1709 16.7428 13.1709Z" fill="#148EFF"/>
</svg>
