<svg id="Layer_1" data-name="Layer 1" xmlns="http://www.w3.org/2000/svg" viewBox="0 0 17 17"><defs><style>.cls-1{fill-rule:evenodd;}</style></defs><path class="cls-1" d="M7.44,2A4.74,4.74,0,0,1,8.5,3,4.74,4.74,0,0,1,9.56,2,4.65,4.65,0,0,1,16.71,6c0,4.14-3.63,6.57-6.28,8.34h0a19.94,19.94,0,0,0-1.7,1.22l-.23.18-.23-.18a19.94,19.94,0,0,0-1.7-1.22h0C3.92,12.52.29,10.09.29,6A4.65,4.65,0,0,1,7.44,2ZM8.5,13.9l-1.12-.77h0a21.4,21.4,0,0,1-3.88-3.07A6,6,0,0,1,1.7,6,3.23,3.23,0,0,1,4.93,2.72,3.2,3.2,0,0,1,7.41,3.89L8.5,5.2,9.59,3.89a3.2,3.2,0,0,1,2.48-1.17A3.23,3.23,0,0,1,15.3,6a6,6,0,0,1-1.78,4.1,21.4,21.4,0,0,1-3.88,3.07h0Z"/></svg>