<svg id="Layer_1" data-name="Layer 1" xmlns="http://www.w3.org/2000/svg" viewBox="0 0 25 26"><path d="M23.69,12.47H20.53L22,10.67a.53.53,0,0,0-.08-.75.54.54,0,0,0-.75.08l-2,2.47H13.79l3.72-3.73h3a.54.54,0,0,0,0-1.07H18.58l2.29-2.28a.54.54,0,1,0-.76-.76L17.83,6.92V5a.54.54,0,0,0-1.07,0V8L13,11.71V6.33l2.47-2a.53.53,0,0,0-.67-.83L13,5V1.81a.53.53,0,0,0-1.06,0V5l-1.8-1.44a.53.53,0,0,0-.67.83l2.47,2v5.38L8.24,8V5A.54.54,0,0,0,7.17,5V6.92L4.89,4.63a.54.54,0,0,0-.76.76L6.42,7.67H4.51a.54.54,0,0,0,0,1.07h3l3.72,3.73H5.83L3.86,10a.54.54,0,0,0-.75-.08.53.53,0,0,0-.08.75l1.44,1.8H1.31a.53.53,0,0,0,0,1.06H4.47L3,15.33a.53.53,0,0,0,.08.75.54.54,0,0,0,.33.12.53.53,0,0,0,.42-.2l2-2.47h5.38L7.49,17.26h-3a.54.54,0,0,0,0,1.07H6.42L4.13,20.61a.54.54,0,0,0,0,.76.56.56,0,0,0,.76,0l2.28-2.29V21a.54.54,0,0,0,1.07,0V18L12,14.29v5.38l-2.47,2a.53.53,0,0,0,.67.83L12,21v3.16a.53.53,0,1,0,1.06,0V21l1.8,1.44a.54.54,0,0,0,.33.12.55.55,0,0,0,.42-.2.54.54,0,0,0-.08-.75l-2.47-2V14.29L16.76,18v3a.54.54,0,0,0,1.07,0V19.08l2.28,2.29a.54.54,0,1,0,.76-.76l-2.29-2.28h1.91a.54.54,0,0,0,0-1.07h-3l-3.72-3.73h5.38l2,2.47a.53.53,0,0,0,.42.2.54.54,0,0,0,.33-.12.53.53,0,0,0,.08-.75l-1.44-1.8h3.16a.53.53,0,0,0,0-1.06Z"/></svg>