<svg id="Layer_1" data-name="Layer 1" xmlns="http://www.w3.org/2000/svg" viewBox="0 0 25 26"><path d="M23.72,11.21a.64.64,0,0,0-.13-.19.59.59,0,0,0-.19-.13.47.47,0,0,0-.23,0,.54.54,0,0,0-.22,0,.64.64,0,0,0-.19.13.76.76,0,0,0-.12.19.57.57,0,0,0,0,.22v5.22a.57.57,0,0,0,0,.22.67.67,0,0,0,.12.2.76.76,0,0,0,.19.12.64.64,0,0,0,.23,0,.59.59,0,0,0,.22,0,.62.62,0,0,0,.19-.12.59.59,0,0,0,.17-.42V11.44A.59.59,0,0,0,23.72,11.21Z"/><path d="M15.68,13.75l-2.11-.44V10.69a.3.3,0,0,0,0-.13.24.24,0,0,0-.06-.11.28.28,0,0,0-.11-.08.28.28,0,0,0-.13,0h0a.3.3,0,0,0-.16.05l-.06.06-2.85,3.91a.35.35,0,0,0-.06.14.29.29,0,0,0,0,.16.38.38,0,0,0,.09.13.37.37,0,0,0,.14.07l2.11.43V18a.35.35,0,0,0,.06.19.31.31,0,0,0,.16.11.34.34,0,0,0,.2,0,.36.36,0,0,0,.16-.11l2.84-3.89a.47.47,0,0,0,.06-.15.44.44,0,0,0,0-.16.29.29,0,0,0-.1-.12A.27.27,0,0,0,15.68,13.75Z"/><path d="M2.23,11.54a.46.46,0,0,0-.18-.13.57.57,0,0,0-.22,0h0a.57.57,0,0,0-.22,0,.59.59,0,0,0-.18.13.55.55,0,0,0-.17.42v4.69a.57.57,0,0,0,0,.22.69.69,0,0,0,.13.2.62.62,0,0,0,.19.12.59.59,0,0,0,.22,0,.59.59,0,0,0,.23,0,.76.76,0,0,0,.19-.12.67.67,0,0,0,.12-.2.41.41,0,0,0,0-.22V12a.45.45,0,0,0,0-.23A.5.5,0,0,0,2.23,11.54Z"/><path d="M18.49,6.69H10.41A3.73,3.73,0,0,0,7.79,7.77l-2,2H4.43A.61.61,0,0,0,4,10a.59.59,0,0,0-.17.42v7.81a.57.57,0,0,0,0,.22.5.5,0,0,0,.13.19.57.57,0,0,0,.41.17H5.72L7.52,21a2.62,2.62,0,0,0,.92.7,2.46,2.46,0,0,0,1.13.25h6.06a3.7,3.7,0,0,0,2.62-1.08l2.13-2.12a2.68,2.68,0,0,0,.57-.87,2.55,2.55,0,0,0,.21-1V9.35a2.72,2.72,0,0,0-.79-1.88A2.65,2.65,0,0,0,18.49,6.69ZM20,16.83a1.52,1.52,0,0,1-.44,1.06L17.43,20a2.57,2.57,0,0,1-.82.55,2.52,2.52,0,0,1-1,.19H9.57a1.57,1.57,0,0,1-.64-.14,1.42,1.42,0,0,1-.51-.4l-2-2.37a.74.74,0,0,0-.2-.16A.7.7,0,0,0,6,17.63H5V11H6a.54.54,0,0,0,.22-.05.62.62,0,0,0,.19-.12L8.61,8.6A2.59,2.59,0,0,1,9.44,8a2.62,2.62,0,0,1,1-.19h8.08a1.66,1.66,0,0,1,.58.11,1.63,1.63,0,0,1,.49.33,1.34,1.34,0,0,1,.32.49,1.26,1.26,0,0,1,.11.57Z"/><path d="M10.78,5.08a.64.64,0,0,0,.19.13.45.45,0,0,0,.23,0h5.73a.54.54,0,0,0,.22,0,.69.69,0,0,0,.2-.13.47.47,0,0,0,.12-.19.59.59,0,0,0,.05-.22.59.59,0,0,0-.05-.23.58.58,0,0,0-.21-.26.59.59,0,0,0-.32-.09H11.19a.54.54,0,0,0-.22,0,.61.61,0,0,0-.32.31.59.59,0,0,0,0,.23.57.57,0,0,0,0,.22A.5.5,0,0,0,10.78,5.08Z"/></svg>