<svg id="Layer_1" data-name="Layer 1" xmlns="http://www.w3.org/2000/svg" viewBox="0 0 25 26"><path d="M8.89,21.58a.46.46,0,1,0-.47-.45A.46.46,0,0,0,8.89,21.58Z"/><path d="M7.65,4.68V2.79A.8.8,0,0,0,6.84,2h-2a.79.79,0,0,0-.56.23A.8.8,0,0,0,4,2.79V7.46A.8.8,0,0,0,4.24,8a.79.79,0,0,0,.56.23h2a.8.8,0,0,0,.81-.79V5.57A.53.53,0,0,0,7.9,5.4.44.44,0,0,0,8,5.13a.45.45,0,0,0-.09-.28A.53.53,0,0,0,7.65,4.68ZM6.72,2.92V7.33H4.93V2.92Z"/><path d="M7.65,20.68V18.79A.8.8,0,0,0,6.84,18h-2a.79.79,0,0,0-.56.23.8.8,0,0,0-.24.56v4.67a.8.8,0,0,0,.24.56.79.79,0,0,0,.56.23h2a.8.8,0,0,0,.81-.79V21.57a.53.53,0,0,0,.25-.17A.44.44,0,0,0,8,21.13a.45.45,0,0,0-.09-.28A.53.53,0,0,0,7.65,20.68Zm-.93-1.76v4.41H4.93V18.92Z"/><path d="M20.44,2h-2a.79.79,0,0,0-.56.23.8.8,0,0,0-.24.56V4.68a.53.53,0,0,0-.25.17.45.45,0,0,0-.09.28.44.44,0,0,0,.09.27.53.53,0,0,0,.25.17V7.46a.8.8,0,0,0,.24.56.79.79,0,0,0,.56.23h2a.8.8,0,0,0,.81-.79V2.79A.8.8,0,0,0,20.44,2Zm-.12.92V7.33H18.53V2.92Z"/><path d="M20.44,18h-2a.79.79,0,0,0-.56.23.8.8,0,0,0-.24.56v1.89a.53.53,0,0,0-.25.17.45.45,0,0,0-.09.28.44.44,0,0,0,.09.27.53.53,0,0,0,.25.17v1.89a.8.8,0,0,0,.24.56.79.79,0,0,0,.56.23h2a.8.8,0,0,0,.81-.79V18.79a.8.8,0,0,0-.81-.79Zm-.12.92v4.41H18.53V18.92Z"/><path d="M16.37,20.67a.47.47,0,0,0-.26.08A.45.45,0,0,0,16,21a.42.42,0,0,0,0,.27.48.48,0,0,0,.13.23.53.53,0,0,0,.23.13.61.61,0,0,0,.27,0,.55.55,0,0,0,.2-.17.46.46,0,0,0,.08-.25.45.45,0,0,0-.14-.33A.42.42,0,0,0,16.37,20.67Z"/><path d="M14,5.58h1a.46.46,0,0,0,.23-.06.44.44,0,0,0,.17-.16.48.48,0,0,0,.06-.24.46.46,0,0,0-.06-.23.44.44,0,0,0-.17-.16A.46.46,0,0,0,15,4.67H14a1.47,1.47,0,0,0-.54-.73,1.49,1.49,0,0,0-.86-.27,1.52,1.52,0,0,0-.87.27,1.47,1.47,0,0,0-.54.73h-1a.51.51,0,0,0-.34.13.49.49,0,0,0-.1.15.58.58,0,0,0,0,.18.48.48,0,0,0,.15.32.42.42,0,0,0,.32.13h1a1.54,1.54,0,0,0,.36.57,1.51,1.51,0,0,0,.58.35V19.75a1.51,1.51,0,0,0-.58.35,1.54,1.54,0,0,0-.36.57h-1a.46.46,0,0,0-.33.13.4.4,0,0,0-.1.15.58.58,0,0,0,0,.18h0a.48.48,0,0,0,.15.32.44.44,0,0,0,.33.13h1a1.47,1.47,0,0,0,.54.73,1.52,1.52,0,0,0,.87.27,1.49,1.49,0,0,0,.86-.27,1.47,1.47,0,0,0,.54-.73h1a.48.48,0,0,0,.24-.06.44.44,0,0,0,.17-.16.48.48,0,0,0,.06-.24.46.46,0,0,0-.06-.23.44.44,0,0,0-.17-.16.48.48,0,0,0-.24-.06H14a1.54,1.54,0,0,0-.36-.57,1.51,1.51,0,0,0-.58-.35V6.5a1.51,1.51,0,0,0,.58-.35A1.54,1.54,0,0,0,14,5.58Zm-1.45,15h.07a.56.56,0,0,1,.37.15.62.62,0,0,1,.16.37v0a.59.59,0,0,1-.18.37.56.56,0,0,1-.37.15.58.58,0,0,1-.38-.15.59.59,0,0,1-.18-.36.06.06,0,0,0,0-.06.52.52,0,0,1,.16-.35A.53.53,0,0,1,12.58,20.58Zm.05-16a.54.54,0,0,1,.38.15.6.6,0,0,1,.17.38v0a.62.62,0,0,1-.16.36.51.51,0,0,1-.36.15H12.6a.48.48,0,0,1-.36-.15.53.53,0,0,1-.17-.35.06.06,0,0,0,0-.06.58.58,0,0,1,.17-.37A.56.56,0,0,1,12.63,4.58Z"/><path d="M16.37,4.67a.47.47,0,0,0-.26.08A.45.45,0,0,0,16,5a.42.42,0,0,0,0,.27.48.48,0,0,0,.13.23.43.43,0,0,0,.23.12.49.49,0,0,0,.27,0,.55.55,0,0,0,.2-.17.46.46,0,0,0,.08-.25.45.45,0,0,0-.14-.33A.42.42,0,0,0,16.37,4.67Z"/><path d="M8.89,5.58a.46.46,0,1,0-.47-.45A.46.46,0,0,0,8.89,5.58Z"/></svg>