<svg id="Layer_1" data-name="Layer 1" xmlns="http://www.w3.org/2000/svg" viewBox="0 0 20 20"><defs><style>.cls-1{fill-rule:evenodd;}</style></defs><path class="cls-1" d="M18.59,10.25V11c0,.26,0,.47-.27.47-.2,2.82-1.43,5-2.91,5h-.34v.3a.35.35,0,0,1-.35.35h-.85a.35.35,0,0,1-.35-.35v-.3H10.59v.3a.35.35,0,0,1-.35.35H9.39A.36.36,0,0,1,9,16.71v-.3H6.1v.3a.35.35,0,0,1-.35.35H4.9a.35.35,0,0,1-.35-.35v-.3c-1.45-.07-2.65-2.21-2.85-5-.25,0-.29-.21-.29-.47v-.7c0-.26,0-.47.29-.47.21-2.82,1.43-5,2.92-5h5.63V4.11a1.18,1.18,0,0,1,1.18-1.17h2.8a1.18,1.18,0,0,1,1.18,1.17v.68c1.48,0,2.71,2.17,2.91,5C18.58,9.78,18.59,10,18.59,10.25ZM16.37,13.5a5.31,5.31,0,0,0,.42-.82.52.52,0,0,0-.53-.67c-2.19,0-4.83-1.19-7.19-2.24C5.09,8,1.89,6.58,3,11.68A5.34,5.34,0,0,0,3.8,13.8c.91,1.15,1.39,1.42,4.55,1.42h5.92a2.51,2.51,0,0,0,1.95-1.46A2.43,2.43,0,0,0,16.37,13.5Z"/></svg>