<svg width="20" height="20" viewBox="0 0 20 20" fill="none" xmlns="http://www.w3.org/2000/svg">
<path d="M19.2182 11.7863L14.8283 11.9326L11.4627 10.0071L14.8283 8.05727L19.2182 8.20351H19.2426C19.6329 8.20351 19.9499 7.88666 19.9743 7.4967C19.9987 7.08236 19.6816 6.76551 19.267 6.74114L15.8526 6.64365L17.4623 3.62141C17.6574 3.25581 17.511 2.8171 17.1696 2.62212C16.8038 2.42713 16.3648 2.57337 16.1697 2.91459L14.0966 6.78988L10.731 8.73972V5.32751L13.0723 1.111C13.2674 0.769775 13.1455 0.306689 12.7796 0.111706C12.4138 -0.0832772 11.9748 0.0385876 11.7797 0.404181L9.99934 3.62141L8.19458 0.379808C7.99947 0.0385875 7.56048 -0.10765 7.19465 0.0873331C6.85321 0.282316 6.70687 0.721029 6.90198 1.08662L9.26768 5.32751V8.73972L6.31666 7.03361L3.82902 2.89022C3.60952 2.549 3.17052 2.42713 2.82908 2.64649C2.48764 2.86584 2.3657 3.30456 2.5852 3.64578L4.48751 6.81426L0.780437 6.74114C0.36583 6.74114 0.0487775 7.05799 0.0487775 7.47232C0.0487775 7.88666 0.36583 8.20351 0.780437 8.20351L5.585 8.301L8.53602 10.0071L5.585 11.7132L0.731659 11.7863C0.317052 11.7863 0 12.1276 0 12.5175C0 12.9319 0.341441 13.2487 0.731659 13.2487L4.43873 13.1756L2.53642 16.3441C2.31692 16.6853 2.43886 17.1484 2.7803 17.3434C2.90225 17.4165 3.02419 17.4408 3.14613 17.4408C3.39002 17.4408 3.63391 17.319 3.78024 17.0753L6.26788 12.9319L9.2189 11.2258V15.101L6.90198 18.8301C6.68249 19.1713 6.78004 19.6344 7.14587 19.8294C7.48731 20.0487 7.9507 19.9513 8.14581 19.5857L9.99934 16.7584L11.8285 19.6588C11.9504 19.8781 12.1943 20 12.4382 20C12.5601 20 12.7065 19.9756 12.8284 19.8781C13.1699 19.6588 13.2674 19.2201 13.0723 18.8788L10.731 15.1498V11.2745L14.0966 13.2243L16.1697 17.0996C16.2916 17.3434 16.5599 17.4896 16.8282 17.4896C16.9501 17.4896 17.072 17.4652 17.1696 17.3921C17.5354 17.1971 17.6574 16.7584 17.4623 16.3928L15.8526 13.3706L19.2914 13.2487C19.706 13.2243 20.0231 12.9075 19.9987 12.4931C19.9499 12.1032 19.6329 11.7863 19.2182 11.7863Z" fill="#148EFF"/>
</svg>
