<svg width="20" height="20" viewBox="0 0 20 20" fill="none" xmlns="http://www.w3.org/2000/svg">
<path d="M18.206 14.1251V15.7211C18.206 15.7211 12.16 15.8251 8.93402 14.5451C6.28642 13.4947 1.59002 13.3251 1.59002 13.3251C1.41802 12.7571 1.31402 11.6611 1.81002 9.6771C2.59002 6.5651 2.21402 4.5851 2.21002 4.5651C2.19002 4.4651 2.24602 4.3691 2.34202 4.3371L3.54202 3.9371C3.59802 3.9171 3.65802 3.9251 3.70602 3.9531C3.75402 3.9811 3.79002 4.0291 3.80202 4.0851L4.15802 5.8651L6.18602 5.1891C6.11802 4.5931 5.98202 2.5779 7.03322 0.822298C7.06922 0.762298 7.13602 0.725098 7.20602 0.725098H9.60602C9.71642 0.725098 9.80602 0.814698 9.80602 0.925098V2.1251C9.80602 2.1691 8.62602 3.8011 9.00202 5.6851C9.07402 6.0451 9.14602 6.4051 9.23802 6.7531L7.47802 7.3451C7.27002 7.4171 7.15802 7.6411 7.22602 7.8531C7.28202 8.0211 7.51002 8.1751 7.73402 8.1051L9.47802 7.5211C9.59802 7.8331 9.74602 8.1331 9.93802 8.4131L8.52202 9.8451C8.36602 10.0011 8.36162 10.2575 8.52602 10.4091C8.76002 10.6251 9.01402 10.4851 9.09002 10.4051L10.462 9.0211C10.738 9.2811 11.074 9.5211 11.49 9.7291L10.486 11.0891C10.354 11.2651 10.39 11.5171 10.57 11.6451C10.76 11.7751 11.05 11.6691 11.126 11.5611L12.25 10.0451C12.418 10.1091 12.598 10.1611 12.79 10.2131L12.806 11.7291C12.81 11.9491 12.986 12.1251 13.206 12.1251H13.21C13.43 12.1211 13.61 11.9411 13.606 11.7211L13.594 10.4131C14.79 10.7331 14.978 11.1411 15.002 11.5971C15.326 11.7371 17.09 12.1251 17.346 12.3851C17.926 12.9611 18.206 13.5291 18.206 14.1251ZM18.41 18.6751C18.05 19.1311 17.734 19.2751 16.806 19.2751H2.40602C2.35402 19.2751 1.25002 18.2191 1.25002 18.2191C1.19402 18.1631 1.17402 18.0831 1.20202 18.0111L2.41002 14.2751C2.41002 14.2751 5.16002 14.2751 6.81002 15.0751C6.14602 15.7831 5.75802 16.2951 5.87802 16.5791C5.95402 16.7711 6.28602 16.8751 6.80602 16.8751H10.806C10.854 16.8751 12.01 16.8251 12.01 16.1251C12.078 16.1371 15.31 16.6251 18.41 16.5251C18.41 16.5251 18.822 17.5231 18.81 17.4751C18.8044 17.4527 18.818 18.1511 18.41 18.6751Z" fill="#148EFF"/>
</svg>
