<svg width="20" height="20" viewBox="0 0 20 20" fill="none" xmlns="http://www.w3.org/2000/svg">
<path d="M13.7651 0.9646C10.8541 0.9646 8.49438 3.32436 8.49438 6.23528C8.49438 6.90603 8.62475 7.54521 8.85321 8.13531L3.97666 13.0119C2.32217 13.0119 0.964844 14.3692 0.964844 16.0237C0.964844 17.6782 2.32217 19.0355 3.97666 19.0355C5.63115 19.0355 6.98847 17.6782 6.98847 16.0237L11.865 11.1471C12.4551 11.3756 13.0943 11.506 13.7651 11.506C16.676 11.506 19.0357 9.14619 19.0357 6.23528C19.0357 5.56439 18.905 4.92556 18.6769 4.33524L16.0239 6.98823H13.0121V3.97641L15.6651 1.32343C15.0748 1.09528 14.4359 0.9646 13.7651 0.9646ZM3.97666 14.5178C4.81746 14.5178 5.48257 15.1829 5.48257 16.0237C5.48257 16.8645 4.81746 17.5296 3.97666 17.5296C3.13586 17.5296 2.47075 16.8645 2.47075 16.0237C2.47075 15.1829 3.13586 14.5178 3.97666 14.5178Z" fill="#148EFF"/>
</svg>
