<svg width="20" height="20" viewBox="0 0 20 20" fill="none" xmlns="http://www.w3.org/2000/svg">
<path d="M13.1094 0C12.9487 0 12.8119 0.114135 12.7826 0.272135L12.6354 1.05599C12.5974 1.25932 12.4364 1.41113 12.2331 1.45312C12.0437 1.49246 11.8571 1.54159 11.6758 1.60026C11.4791 1.66426 11.2649 1.6137 11.1302 1.45703L10.6133 0.852865C10.5086 0.730865 10.332 0.701885 10.1927 0.782552L9.80729 1.00521C9.66862 1.08521 9.60552 1.25361 9.65885 1.40495L9.92318 2.15625C9.99184 2.35092 9.92874 2.56252 9.77474 2.70052C9.63141 2.82919 9.49585 2.96474 9.36719 3.10807C9.22919 3.26207 9.01758 3.32648 8.82292 3.25781L8.07031 2.99219C7.91898 2.93885 7.75188 3.00129 7.67187 3.14062L7.44792 3.52734C7.36792 3.66601 7.3982 3.84325 7.51953 3.94792L7.58464 4.00391C8.3733 4.01724 9.04801 4.58138 9.19401 5.35938L9.23438 5.57161L9.3737 5.40755C9.6797 5.05155 10.1081 4.85797 10.5508 4.83464C11.1481 3.9313 12.17 3.33333 13.3333 3.33333C15.174 3.33333 16.6667 4.826 16.6667 6.66667C16.6667 7.83 16.0687 8.85192 15.1654 9.44792C15.142 9.89058 14.9484 10.3197 14.5924 10.625L14.4284 10.7643L14.6406 10.8047C15.4186 10.9507 15.9828 11.6254 15.9961 12.4141L16.0521 12.4792C16.1567 12.6012 16.3333 12.6314 16.4727 12.5508L16.8594 12.3268C16.998 12.2468 17.0611 12.0797 17.0078 11.9284L16.7422 11.1758C16.6735 10.9811 16.7379 10.7695 16.8919 10.6315C17.0353 10.5028 17.1708 10.3673 17.2995 10.224C17.4375 10.07 17.6491 10.0069 17.8438 10.0755L18.5951 10.3398C18.7464 10.3932 18.9148 10.3307 18.9948 10.1914L19.2174 9.80469C19.2974 9.66602 19.2685 9.49008 19.1471 9.38542L18.543 8.86719C18.3863 8.73252 18.3357 8.51828 18.3997 8.32162C18.4584 8.14028 18.5075 7.95496 18.5469 7.76563C18.5889 7.56296 18.7407 7.40195 18.944 7.36328L19.7279 7.21484C19.8859 7.18751 20 7.05129 20 6.89063V6.44271C20 6.28204 19.8859 6.14522 19.7279 6.11589L18.944 5.96875C18.7407 5.93075 18.5889 5.76974 18.5469 5.56641C18.5075 5.37707 18.4584 5.19045 18.3997 5.00911C18.3357 4.81245 18.3863 4.59821 18.543 4.46354L19.1471 3.94661C19.2691 3.84195 19.2981 3.66537 19.2174 3.52604L18.9948 3.14062C18.9148 3.00196 18.7464 2.93885 18.5951 2.99219L17.8438 3.25651C17.6491 3.32518 17.4375 3.26207 17.2995 3.10807C17.1708 2.96474 17.0353 2.82919 16.8919 2.70052C16.7379 2.56252 16.6735 2.35092 16.7422 2.15625L17.0078 1.40365C17.0611 1.25231 16.9987 1.08521 16.8594 1.00521L16.4727 0.78125C16.334 0.70125 16.1567 0.731531 16.0521 0.852865L15.5352 1.45703C15.4005 1.6137 15.1863 1.66426 14.9896 1.60026C14.8083 1.54159 14.6216 1.49246 14.4323 1.45312C14.2296 1.41113 14.0686 1.25802 14.0299 1.05469L13.8828 0.270833C13.8548 0.1135 13.718 0 13.5573 0H13.1094ZM7.10937 5.33333C6.94871 5.33333 6.81189 5.44683 6.78255 5.60417L6.65885 6.26302C6.60752 6.53702 6.38922 6.73894 6.11589 6.79427C5.88855 6.84027 5.66525 6.89872 5.44792 6.97005C5.18392 7.05672 4.89421 6.99192 4.71354 6.78125L4.27995 6.27474C4.17528 6.15341 3.99804 6.12443 3.85938 6.20443L3.47396 6.42708C3.33463 6.50708 3.27219 6.67549 3.32552 6.82682L3.54948 7.46094C3.64148 7.7236 3.55369 8.00607 3.34635 8.19141C3.17502 8.34474 3.01204 8.50705 2.85938 8.67839C2.67404 8.88572 2.39157 8.97351 2.12891 8.88151L1.49349 8.65885C1.34216 8.60552 1.17505 8.66862 1.09505 8.80729L0.871094 9.19271C0.790427 9.33204 0.820708 9.50861 0.942708 9.61328L1.44922 10.0469C1.65989 10.2275 1.72469 10.5173 1.63802 10.7812C1.56669 10.9986 1.50824 11.2219 1.46224 11.4492C1.40691 11.7226 1.20499 11.9409 0.93099 11.9922L0.272135 12.1159C0.114135 12.1452 0 12.282 0 12.4427V12.8906C0 13.0513 0.1135 13.1881 0.270833 13.2174L0.929688 13.3411C1.20369 13.3925 1.4056 13.6108 1.46094 13.8841C1.50694 14.1121 1.56539 14.3348 1.63672 14.5521C1.72339 14.8161 1.65858 15.1058 1.44792 15.2865L0.941406 15.7201C0.820073 15.8247 0.791094 16.002 0.871094 16.1406L1.09375 16.526C1.17375 16.6654 1.34216 16.7278 1.49349 16.6745L2.1276 16.4505C2.39027 16.3585 2.67274 16.4463 2.85807 16.6536C3.01141 16.825 3.17372 16.988 3.34505 17.1406C3.55239 17.326 3.64018 17.6084 3.54818 17.8711L3.32552 18.5065C3.27219 18.6578 3.33529 18.8249 3.47396 18.9049L3.85938 19.1289C3.99871 19.2096 4.17528 19.1793 4.27995 19.0573L4.71354 18.5508C4.89421 18.3401 5.18392 18.2753 5.44792 18.362C5.66525 18.4333 5.88855 18.4918 6.11589 18.5378C6.38922 18.5931 6.60752 18.795 6.65885 19.069L6.78255 19.7279C6.81189 19.8859 6.94871 20 7.10937 20H7.55729C7.71796 20 7.85481 19.8858 7.88281 19.7292L8.00651 19.0703C8.05784 18.7963 8.27615 18.5944 8.54948 18.5391C8.77748 18.4931 9.00011 18.4346 9.21745 18.3633C9.48145 18.2766 9.77116 18.3414 9.95182 18.5521L10.3854 19.0586C10.4901 19.1799 10.666 19.2102 10.8047 19.1302L11.1914 18.9062C11.3307 18.8263 11.3932 18.6591 11.3398 18.5078L11.1172 17.8724C11.0252 17.6097 11.113 17.3273 11.3203 17.1419C11.4916 16.9886 11.6546 16.8263 11.8073 16.6549C11.9926 16.4476 12.2758 16.3598 12.5378 16.4518L13.1732 16.6745C13.3245 16.7278 13.4916 16.6647 13.5716 16.526L13.7956 16.1406C13.8762 16.0013 13.846 15.8247 13.724 15.7201L13.2174 15.2865C13.0068 15.1058 12.942 14.8161 13.0286 14.5521C13.1 14.3348 13.1584 14.1114 13.2044 13.8841C13.2598 13.6108 13.4617 13.3925 13.7357 13.3411L14.3945 13.2174C14.5525 13.1881 14.6667 13.0513 14.6667 12.8906V12.4427C14.6667 12.282 14.5525 12.1459 14.3958 12.1172L13.737 11.9935C13.463 11.9422 13.2611 11.7226 13.2057 11.4492C13.1597 11.2219 13.1013 10.9986 13.0299 10.7812C12.9433 10.5173 13.0081 10.2288 13.2188 10.0482L13.7253 9.61458C13.8466 9.50992 13.8769 9.33268 13.7969 9.19401L13.5729 8.80729C13.4929 8.66796 13.3258 8.60552 13.1745 8.65885L12.5391 8.88281C12.2764 8.97481 11.9939 8.88702 11.8086 8.67969C11.6553 8.50835 11.4929 8.34538 11.3216 8.19271C11.1143 8.00738 11.0265 7.72491 11.1185 7.46224L11.3411 6.82682C11.3945 6.67549 11.3314 6.50839 11.1927 6.42839L10.8073 6.20443C10.668 6.12376 10.4914 6.15404 10.3867 6.27604L9.95313 6.78255C9.77246 6.99322 9.48275 7.05802 9.21875 6.97135C9.00142 6.90002 8.77812 6.84157 8.55078 6.79557C8.27745 6.74024 8.05915 6.53832 8.00781 6.26432L7.88411 5.60547C7.85478 5.44747 7.71796 5.33333 7.55729 5.33333H7.10937ZM13.3333 6C13.1565 6 12.987 6.07024 12.8619 6.19526C12.7369 6.32029 12.6667 6.48986 12.6667 6.66667C12.6667 6.84348 12.7369 7.01305 12.8619 7.13807C12.987 7.2631 13.1565 7.33333 13.3333 7.33333C13.5101 7.33333 13.6797 7.2631 13.8047 7.13807C13.9298 7.01305 14 6.84348 14 6.66667C14 6.48986 13.9298 6.32029 13.8047 6.19526C13.6797 6.07024 13.5101 6 13.3333 6ZM7.33333 8.66667C9.54267 8.66667 11.3333 10.4573 11.3333 12.6667C11.3333 14.876 9.54267 16.6667 7.33333 16.6667C5.124 16.6667 3.33333 14.876 3.33333 12.6667C3.33333 10.4573 5.124 8.66667 7.33333 8.66667ZM7.33333 11.3333C6.59667 11.3333 6 11.93 6 12.6667C6 13.4033 6.59667 14 7.33333 14C8.07 14 8.66667 13.4033 8.66667 12.6667C8.66667 11.93 8.07 11.3333 7.33333 11.3333Z" fill="#148EFF"/>
</svg>
