<svg width="60" height="60" viewBox="0 0 60 60" fill="none" xmlns="http://www.w3.org/2000/svg">
<path d="M55 30C55 43.805 43.805 55 30 55C16.195 55 5 43.805 5 30C5 16.195 16.195 5 30 5C43.805 5 55 16.195 55 30Z" fill="#00ACC1"/>
<path d="M50 30C50 41.0475 41.0475 50 30 50C18.9525 50 10 41.0475 10 30C10 18.9525 18.9538 10 30 10C41.0462 10 50 18.9538 50 30Z" fill="#EEEEEE"/>
<path d="M28.1048 26.7675C26.3073 27.8175 25.7173 30.1175 26.781 31.9087C27.8498 33.7062 30.1648 34.3062 31.966 33.2612C33.7635 32.2162 34.3535 29.9112 33.2848 28.12C32.221 26.3288 29.9023 25.7175 28.1048 26.7675Z" fill="#263238"/>
<path d="M44.1265 21.8062L32.4077 31.5474L29.834 27.2212L44.1265 21.8062Z" fill="#263238"/>
<path d="M10.0637 31.275H15.0038V28.75H10.0625C10.0375 29.165 10 29.5775 10 30C10 30.43 10.0375 30.8513 10.0637 31.275ZM13 40.4975L17.3638 38.1738L16.1775 35.9475L11.8075 38.275C12.1575 39.0438 12.5575 39.7838 13 40.4975Z" fill="#FF1744"/>
<path d="M21.4693 17.6025L23.6618 16.3525L21.2143 12.0537C20.4555 12.4262 19.718 12.8325 19.0168 13.295L21.4693 17.6025ZM12.0918 21.1325L16.3755 23.6075L17.6355 21.42L13.3405 18.9388C12.8755 19.6388 12.468 20.3763 12.0918 21.1325ZM44.9943 31.25H49.9355C49.9618 30.835 49.9993 30.4225 49.9993 30C49.9993 29.57 49.9618 29.1487 49.9355 28.725H44.9955V31.25H44.9943ZM48.3368 37.9737L43.9255 35.7075L42.773 37.9538L47.173 40.2138C47.6018 39.4925 47.9993 38.75 48.3368 37.9737ZM39.013 12.1637L36.503 16.4313L38.6805 17.71L41.1968 13.4263C40.5018 12.9563 39.7668 12.545 39.013 12.1637ZM31.2493 10.0625C30.8343 10.0375 30.4218 10 29.9993 10C29.5693 10 29.148 10.0375 28.7243 10.0637V15.0038H31.2493V10.0625Z" fill="#90A4AE"/>
<path d="M29.3899 28.9313C28.7937 29.2776 28.5987 30.0501 28.9499 30.6451C29.3062 31.2451 30.0824 31.4463 30.6787 31.0938C31.2787 30.7476 31.4749 29.9801 31.1224 29.3801C30.7662 28.7838 29.9899 28.5838 29.3899 28.9313Z" fill="#4DD0E1"/>
<g style="mix-blend-mode:color">
<rect width="60" height="60" fill="#148EFF"/>
</g>
</svg>
