<svg width="60" height="61" viewBox="0 0 60 61" fill="none" xmlns="http://www.w3.org/2000/svg">
<g clip-path="url(#clip0_2906_76752)">
<path d="M20.9082 9.67995L21.6617 7.35437C21.9698 6.40437 22.835 5.76367 23.8082 5.76367H36.3791C37.3524 5.76367 38.2163 6.40437 38.5245 7.35437L39.278 9.67995C39.7652 11.1858 38.6757 12.7404 37.1326 12.7404H23.0536C21.5105 12.7404 20.421 11.1858 20.9082 9.67995Z" fill="#546E7A"/>
<path d="M26.6046 12.7405H24.2791V17.3916H26.6046V12.7405Z" fill="#78909C"/>
<path d="M35.9069 12.7405H33.5813V17.3916H35.9069V12.7405Z" fill="#78909C"/>
<path d="M46.1592 29.8823L43.6301 21.4718C42.8999 19.0439 40.7371 17.3916 38.2894 17.3916H21.8964C19.4487 17.3916 17.286 19.0439 16.5557 21.4718L14.0266 29.8823C12.8127 33.9172 12.3964 35.8393 12.8011 40.0451L13.3069 45.2986L16.1394 47.6242H44.0464L46.879 45.2986L47.3848 40.0451C47.7894 35.8393 47.3732 33.916 46.1592 29.8823Z" fill="#91A4AE"/>
<path d="M42.8852 55.7636H17.3015C16.8294 55.7636 16.3632 55.6555 15.9446 55.4497L10.0376 52.545C9.1992 52.1323 8.62478 51.3648 8.49688 50.4834L8.02711 47.252C7.78874 45.6043 9.15269 44.1357 10.9259 44.1357C12.3922 44.1357 13.805 44.652 14.8852 45.5823L15.4376 46.0567C16.1434 46.6648 17.1143 46.9113 18.048 46.7125C20.6411 46.159 25.1108 45.2985 30.0934 45.2985C35.0759 45.2985 39.5457 46.159 42.1387 46.7125C43.0725 46.9113 44.0434 46.6636 44.7492 46.0567L45.3015 45.5823C46.3818 44.652 47.7945 44.1369 49.2608 44.1369C51.0329 44.1369 52.398 45.6055 52.1585 47.2532L51.6887 50.4846C51.5608 51.3648 50.9864 52.1334 50.148 52.5462L44.2411 55.4509C43.8236 55.6555 43.3573 55.7636 42.8852 55.7636Z" fill="#546E7A"/>
<path d="M39.3954 41.8101H37.0698C37.0698 36.5008 35.7408 27.3217 34.9873 26.2415C34.0652 25.0624 32.0268 24.3275 29.8315 24.3705C27.7745 24.4112 26.0094 25.1171 25.2222 26.2112C24.4605 27.3438 23.1164 36.5519 23.1164 41.8101H20.7908C20.7908 37.3915 21.9687 26.7519 23.335 24.8519C24.5582 23.1508 26.9687 22.1008 29.785 22.045C32.7233 21.9671 35.4396 23.0461 36.8233 24.8147C38.3082 26.7159 39.3954 37.7217 39.3954 41.8101Z" fill="#B92E1C"/>
<path d="M19.5934 46.4033V55.7638H17.2678V46.7754C17.5236 46.787 17.7911 46.7754 18.0469 46.7173C18.512 46.6243 19.0236 46.508 19.5934 46.4033Z" fill="#B92E1C"/>
<path d="M42.8837 46.787V55.7637H40.5581V46.3916C41.1395 46.5079 41.6744 46.6125 42.1395 46.7172C42.3837 46.7753 42.6395 46.787 42.8837 46.787Z" fill="#B92E1C"/>
<g style="mix-blend-mode:color">
<rect y="0.763672" width="60" height="60" fill="#148EFF"/>
</g>
</g>
<defs>
<clipPath id="clip0_2906_76752">
<rect width="60" height="60" fill="white" transform="translate(0 0.763672)"/>
</clipPath>
</defs>
</svg>
