<svg width="60" height="61" viewBox="0 0 60 61" fill="none" xmlns="http://www.w3.org/2000/svg">
<g clip-path="url(#clip0_2906_76749)">
<path d="M30 5.76367C16.195 5.76367 5 16.9524 5 30.7637C5 44.5637 16.195 55.7637 30 55.7637C43.805 55.7637 55 44.5637 55 30.7637C55 16.9524 43.805 5.76367 30 5.76367ZM30 48.2637C20.335 48.2637 12.5 40.4237 12.5 30.7637C12.5 21.0937 20.335 13.2637 30 13.2637C39.665 13.2637 47.5 21.0937 47.5 30.7637C47.5 40.4237 39.665 48.2637 30 48.2637Z" fill="#7A8B93"/>
<path d="M35 30.7588C35 33.5225 32.7638 35.7588 30 35.7588C27.2363 35.7588 25 33.5225 25 30.7588C25 27.995 27.2363 25.7588 30 25.7588C32.7638 25.7588 35 27.995 35 30.7588Z" fill="#B0BEC5"/>
<path d="M30.6637 29.6986L29.3349 31.8173L14.2324 25.3236L18.2074 18.9661L30.6637 29.6986ZM29.3362 31.8186L30.6649 29.6998L45.7674 36.1936L41.7924 42.5511L29.3362 31.8186Z" fill="#B0BEC5"/>
<path d="M29.3362 29.6986L30.6649 31.8173L45.7674 25.3236L41.7924 18.9661L29.3362 29.6986ZM30.6637 31.8186L29.3349 29.6998L14.2324 36.1936L18.2074 42.5511L30.6637 31.8186Z" fill="#B0BEC5"/>
<path d="M31.25 30.7588H28.75L26.25 14.5088H33.75L31.25 30.7588ZM28.75 30.7588H31.25L33.75 47.0088H26.25L28.75 30.7588Z" fill="#B0BEC5"/>
<path d="M30 14.5137C38.975 14.5137 46.25 21.7837 46.25 30.7637C46.25 39.7337 38.975 47.0137 30 47.0137C21.025 47.0137 13.75 39.7337 13.75 30.7637C13.75 21.7837 21.025 14.5137 30 14.5137ZM30 12.0137C19.6625 12.0137 11.25 20.4224 11.25 30.7637C11.25 41.1012 19.6625 49.5137 30 49.5137C40.3375 49.5137 48.75 41.1012 48.75 30.7637C48.75 20.4224 40.3375 12.0137 30 12.0137Z" fill="#78909C"/>
<path d="M32.5 30.7637C32.5 32.1449 31.3812 33.2637 30 33.2637C28.6187 33.2637 27.5 32.1449 27.5 30.7637C27.5 29.3824 28.6187 28.2637 30 28.2637C31.3812 28.2637 32.5 29.3824 32.5 30.7637Z" fill="#37474F"/>
<path d="M20.8162 10.2324L19.79 7.95492C19.3862 8.13617 18.99 8.32742 18.5975 8.52867C18.3563 8.65242 18.1113 8.77242 17.8725 8.90367C17.7325 8.98117 17.6 9.07242 17.4625 9.15367L18.7162 11.3149C19.395 10.9187 20.0938 10.5562 20.8162 10.2324ZM25.34 8.74867L24.7738 6.31492C23.9288 6.49492 23.1013 6.72117 22.29 6.98367L23.0612 9.36117C23.8062 9.11992 24.565 8.91117 25.34 8.74867ZM30 8.25867C30.0163 8.25867 30.0312 8.26117 30.0463 8.26117V5.76367H30C29.995 5.76367 29.995 5.76367 29.99 5.76367C29.985 5.76367 29.985 5.76367 29.98 5.76367H29.975H29.97C29.965 5.76367 29.965 5.76367 29.96 5.76367C29.955 5.76367 29.955 5.76367 29.955 5.76367C29.95 5.76367 29.95 5.76367 29.95 5.76367H29.945C29.94 5.76367 29.94 5.76367 29.94 5.76367C29.935 5.76367 29.935 5.76367 29.935 5.76367H29.93H29.925C29.92 5.76367 29.92 5.76367 29.92 5.76367H29.9125C29.9125 5.76367 29.9125 5.76367 29.9075 5.76367H29.9025C29.065 5.76742 28.2362 5.80742 27.4187 5.89117L27.6825 8.37742C28.4438 8.29992 29.2175 8.25867 30 8.25867ZM13.2362 15.7874L11.3688 14.1299C11.2425 14.2712 11.11 14.4062 10.9875 14.5499C10.7975 14.7737 10.6125 14.9999 10.43 15.2299C10.1862 15.5362 9.95625 15.8524 9.72625 16.1712L11.75 17.6349C12.2137 16.9912 12.71 16.3774 13.2362 15.7874ZM16.7325 12.6162L15.255 10.6024C15.0838 10.7274 14.9137 10.8537 14.7463 10.9837C14.3538 11.2874 13.9688 11.5987 13.595 11.9249C13.4675 12.0362 13.3462 12.1512 13.2212 12.2649L14.9 14.1137C15.4838 13.5824 16.0938 13.0837 16.7325 12.6162ZM10.4675 19.6187L8.29375 18.3862C8.2225 18.5112 8.14 18.6274 8.07 18.7537C8.04875 18.7937 8.02625 18.8299 8.005 18.8699C8 18.8699 8 18.8749 8 18.8749C7.9975 18.8799 7.995 18.8837 7.99375 18.8887C7.98875 18.8974 7.985 18.9074 7.98 18.9174V18.9212C7.97625 18.9212 7.97625 18.9224 7.97625 18.9249C7.97375 18.9287 7.9725 18.9337 7.97 18.9387V18.9424H7.96875C7.9675 18.9449 7.96625 18.9474 7.965 18.9499V18.9524C7.9625 18.9524 7.9625 18.9537 7.9625 18.9549C7.65375 19.5299 7.37375 20.1224 7.11 20.7237L9.39875 21.7287C9.7175 21.0037 10.0775 20.3012 10.4675 19.6187ZM8.55875 23.9412L6.175 23.1849C6.1625 23.2224 6.14625 23.2587 6.13375 23.2962C6.13125 23.3062 6.12875 23.3162 6.125 23.3262C6.125 23.3312 6.12125 23.3312 6.12 23.3349C6.12 23.3362 6.12 23.3374 6.11875 23.3374V23.3412C6.11875 23.3437 6.1175 23.3437 6.11625 23.3449C6.115 23.3487 6.115 23.3537 6.1125 23.3574C6.1125 23.3587 6.1125 23.3599 6.1125 23.3624C6.1125 23.3637 6.11125 23.3637 6.11125 23.3637C6.11 23.3687 6.10875 23.3737 6.1075 23.3774C6.1075 23.3774 6.1075 23.3774 6.1075 23.3824L6.10625 23.3837C5.9875 23.7687 5.90375 24.1674 5.80375 24.5599C5.705 24.9487 5.58875 25.3287 5.50625 25.7262L7.955 26.2249C8.11625 25.4474 8.32125 24.6874 8.55875 23.9412ZM38.5337 9.94492L39.485 7.63367C39.2812 7.54992 39.07 7.48492 38.8638 7.40617C38.3112 7.19617 37.7575 6.98992 37.1862 6.81867C37.125 6.80117 37.0612 6.78867 37.0013 6.77117L36.2987 9.16992C37.0612 9.39117 37.8075 9.64742 38.5337 9.94492ZM51.1963 23.2699L53.5525 22.4412C53.435 22.1087 53.32 21.7749 53.1887 21.4487C53.115 21.2662 53.05 21.0787 52.9725 20.8987C52.8425 20.5962 52.6875 20.3087 52.5462 20.0124L50.2913 21.0862C50.63 21.7949 50.9325 22.5224 51.1963 23.2699ZM49.1625 19.0112L51.29 17.7037C51.205 17.5662 51.1263 17.4262 51.0387 17.2899C50.7613 16.8587 50.4688 16.4399 50.1675 16.0287C50.0475 15.8637 49.925 15.6999 49.8013 15.5387L47.8225 17.0624C48.3037 17.6874 48.7488 18.3374 49.1625 19.0112ZM33.9987 8.63367L34.4425 6.17492C33.8625 6.07117 33.28 5.96992 32.6863 5.90742C32.685 5.90742 32.685 5.90742 32.6825 5.90742C32.6775 5.90742 32.6775 5.90742 32.6725 5.90742C32.67 5.90742 32.6687 5.90492 32.6662 5.90492C32.6612 5.90492 32.6562 5.90367 32.6513 5.90242C32.6462 5.90242 32.6463 5.90242 32.6413 5.90242C32.6363 5.90242 32.6362 5.90242 32.6312 5.90242C32.6262 5.90242 32.6262 5.90242 32.6213 5.90242C32.6063 5.90242 32.59 5.90242 32.575 5.89742C32.575 5.89742 32.575 5.89742 32.57 5.89742C32.57 5.89742 32.57 5.89742 32.565 5.89742C32.56 5.89742 32.56 5.89742 32.56 5.89742C32.555 5.89742 32.555 5.89742 32.55 5.89742C32.545 5.89742 32.545 5.89742 32.545 5.89742C32.54 5.89742 32.54 5.89742 32.54 5.89742C32.535 5.89742 32.535 5.89742 32.535 5.89742C32.53 5.89742 32.53 5.89742 32.53 5.89742C32.525 5.89742 32.525 5.89742 32.52 5.89742C32.515 5.89742 32.515 5.89742 32.51 5.89742C32.505 5.89742 32.505 5.89742 32.5 5.89742C32.495 5.89742 32.495 5.89742 32.495 5.89742C32.49 5.89742 32.49 5.89742 32.49 5.89742C32.485 5.89742 32.485 5.89742 32.48 5.89742C32.475 5.89742 32.475 5.89742 32.47 5.89742C32.465 5.89742 32.465 5.89742 32.46 5.89742C32.455 5.89742 32.455 5.89742 32.45 5.89742C32.445 5.89742 32.445 5.89742 32.44 5.89742C32.435 5.89742 32.435 5.89742 32.43 5.89742C32.425 5.89742 32.425 5.89742 32.42 5.89742C32.415 5.89742 32.41 5.89742 32.41 5.89742C32.3363 5.88117 32.2587 5.87867 32.1838 5.86867C32.07 5.85867 31.9525 5.85992 31.8388 5.85117L31.6537 8.34242C32.4438 8.39992 33.2275 8.49617 33.9987 8.63367ZM52.2925 27.8612L54.77 27.5437C54.6988 26.9874 54.625 26.4324 54.5175 25.8887C54.4937 25.7649 54.4662 25.6437 54.44 25.5212C54.3987 25.3299 54.34 25.1462 54.295 24.9562L51.865 25.5362C52.0475 26.2987 52.1912 27.0724 52.2925 27.8612ZM7.5 30.7587C7.5 30.0212 7.54125 29.2924 7.61 28.5724L5.1225 28.3324C5.04875 29.0974 5.00875 29.8724 5.005 30.6574C5.005 30.6574 5.005 30.6574 5.005 30.6612C5.005 30.6662 5.005 30.6662 5.005 30.6662C5.005 30.6712 5.005 30.6712 5.005 30.6712V30.6762V30.6812V30.6862C5.005 30.6862 5.005 30.6862 5.005 30.6912C5.005 30.6912 5.005 30.6912 5.005 30.6962C5.005 30.7012 5.005 30.7012 5.005 30.7012C5.005 30.7062 5.005 30.7062 5.005 30.7062C5.005 30.7112 5.005 30.7112 5.005 30.7112C5.005 30.7162 5.005 30.7162 5.005 30.7162V30.7212V30.7262C5 30.7524 5 30.7574 5 30.7624C5 30.8287 5.01 30.8924 5.01 30.9587L7.50875 30.9387C7.50875 30.8787 7.5 30.8199 7.5 30.7587ZM46.2862 15.2624L48.0938 13.5387C48.0075 13.4487 47.93 13.3512 47.8425 13.2624C47.7162 13.1337 47.5875 13.0074 47.4587 12.8812C47.05 12.4824 46.6262 12.0999 46.1912 11.7287L44.5713 13.6312C45.1725 14.1437 45.7412 14.6899 46.2862 15.2624ZM42.695 12.1874L44.1075 10.1249C44.0925 10.1149 44.0788 10.1024 44.0638 10.0924C43.9875 10.0399 43.9075 9.99117 43.8312 9.93867C43.3187 9.59742 42.79 9.28242 42.2525 8.97867C42.1237 8.90367 41.9987 8.82117 41.8662 8.75117C41.865 8.75117 41.865 8.74992 41.8638 8.74992L40.6763 10.9499C41.3713 11.3262 42.0437 11.7412 42.695 12.1874ZM43.555 48.6874L45.0625 50.6787C45.325 50.4799 45.6 50.2949 45.855 50.0862C45.8775 50.0674 45.9 50.0512 45.9225 50.0324C46.3237 49.6999 46.6987 49.3387 47.0787 48.9824L45.365 47.1662C44.7887 47.7037 44.185 48.2099 43.555 48.6874ZM7.65375 33.3062L5.17 33.5849C5.24125 34.2124 5.3375 34.8324 5.45375 35.4462C5.48375 35.6024 5.50625 35.7624 5.5375 35.9174C5.55625 36.0062 5.585 36.0899 5.605 36.1774L8.04625 35.6399C7.8775 34.8749 7.74375 34.0974 7.65375 33.3062ZM47.0075 45.4612L48.8963 47.0962C48.9688 47.0124 49.0475 46.9362 49.1187 46.8512C49.4025 46.5137 49.665 46.1587 49.9313 45.8062C50.1275 45.5474 50.3287 45.2924 50.515 45.0262L48.4662 43.5962C48.0125 44.2462 47.5225 44.8649 47.0075 45.4612ZM51.5438 37.2337L53.9375 37.9524C54.0125 37.7024 54.0662 37.4449 54.1325 37.1924C54.2725 36.6737 54.4112 36.1549 54.5175 35.6237C54.5325 35.5499 54.5375 35.4724 54.5525 35.3974L52.0975 34.9349C51.9513 35.7149 51.7687 36.4837 51.5438 37.2337ZM49.7188 41.5924L51.9088 42.7974C51.9238 42.7712 51.9412 42.7474 51.955 42.7212C52.3512 41.9949 52.7113 41.2474 53.0387 40.4799C53.045 40.4637 53.05 40.4462 53.0575 40.4299L50.7513 39.4624C50.445 40.1937 50.0975 40.9024 49.7188 41.5924ZM54.97 30.1624L52.4725 30.2212C52.4775 30.4024 52.5 30.5774 52.5 30.7587C52.5 31.3774 52.4562 31.9862 52.4075 32.5924L54.8975 32.7924C54.9512 32.1199 55 31.4449 55 30.7587C55 30.5574 54.975 30.3637 54.97 30.1624ZM35.0513 52.6687L35.6075 55.1049C35.875 55.0437 36.1375 54.9712 36.4013 54.9012C36.8775 54.7762 37.3538 54.6499 37.8162 54.4962C37.9238 54.4612 38.0262 54.4174 38.1325 54.3799L37.3225 52.0174C36.5812 52.2712 35.825 52.4912 35.0513 52.6687ZM39.5112 51.1274L40.5688 53.3899C40.8988 53.2349 41.2313 53.0837 41.5537 52.9149C41.735 52.8199 41.9188 52.7299 42.0975 52.6299C42.3688 52.4799 42.625 52.3087 42.89 52.1487L41.5938 50.0137C40.9213 50.4212 40.2275 50.7924 39.5112 51.1274ZM13.475 45.9924L11.64 47.6862C12.2338 48.3299 12.8587 48.9437 13.5162 49.5224L15.1637 47.6462C14.5725 47.1249 14.01 46.5724 13.475 45.9924ZM10.6512 42.2012L8.50375 43.4762C8.95125 44.2312 9.4375 44.9587 9.96 45.6599L11.9613 44.1662C11.4913 43.5349 11.0538 42.8812 10.6512 42.2012ZM8.68125 37.9137L6.3125 38.7074C6.5925 39.5437 6.91875 40.3562 7.2825 41.1499L9.55375 40.1099C9.22625 39.3962 8.93375 38.6649 8.68125 37.9137ZM21.1375 51.4399L20.15 53.7362C20.1738 53.7462 20.1975 53.7599 20.2213 53.7712C20.8737 54.0487 21.545 54.2862 22.225 54.5099C22.3563 54.5524 22.4838 54.6062 22.6163 54.6474L23.3525 52.2574C22.595 52.0249 21.8575 51.7487 21.1375 51.4399ZM25.6487 52.8299L25.1662 55.2824C25.885 55.4237 26.6137 55.5387 27.3537 55.6162C27.3925 55.6199 27.4312 55.6274 27.47 55.6312C27.5675 55.6412 27.6687 55.6374 27.7662 55.6462L27.9862 53.1574C27.1938 53.0862 26.4137 52.9799 25.6487 52.8299ZM30.3612 53.2412L30.4 55.7387C31.0775 55.7274 31.7512 55.6999 32.415 55.6374C32.4975 55.6299 32.5813 55.6224 32.6637 55.6137C32.785 55.6012 32.9025 55.5737 33.0238 55.5587L32.7213 53.0787C31.9463 53.1724 31.16 53.2274 30.3612 53.2412ZM17.0187 49.1162L15.575 51.1549C15.7063 51.2487 15.8287 51.3537 15.9613 51.4437C16.0175 51.4824 16.0763 51.5187 16.1325 51.5562C16.6675 51.9137 17.2213 52.2437 17.7838 52.5599L19.0087 50.3824C18.3225 49.9962 17.66 49.5712 17.0187 49.1162Z" fill="#485962"/>
<g style="mix-blend-mode:color">
<rect y="0.763672" width="60" height="60" rx="30" fill="#148EFF"/>
</g>
</g>
<defs>
<clipPath id="clip0_2906_76749">
<rect width="60" height="60" fill="white" transform="translate(0 0.763672)"/>
</clipPath>
</defs>
</svg>
