<svg xmlns="http://www.w3.org/2000/svg" viewBox="0 0 25 25">
   
    <path
        d="M11.74,1.71l-2.5,5.6a.84.84,0,0,1-.67.49l-6.1.64A.83.83,0,0,0,2,9.89L6.56,14a.83.83,0,0,1,.25.8l-1.27,6a.87.87,0,0,0,.09.61.84.84,0,0,0,1.14.29l5.31-3.05a.91.91,0,0,1,.42-.11V1.22A.83.83,0,0,0,11.74,1.71Z" />
    <path fill="currentColor"
        d="M18.23,21.7a.81.81,0,0,0,.61.09.83.83,0,0,0,.62-1l-1.27-6a.83.83,0,0,1,.25-.8L23,9.89a.84.84,0,0,0,.28-.55.83.83,0,0,0-.75-.9l-6.1-.64a.84.84,0,0,1-.67-.49l-2.5-5.6a.86.86,0,0,0-.43-.43,1,1,0,0,0-.33-.06v17.3a.91.91,0,0,1,.42.11Z" />
</svg>