<svg id="Layer_1" data-name="Layer 1" xmlns="http://www.w3.org/2000/svg" viewBox="0 0 25 26"><defs><style>.cls-1{fill-rule:evenodd;}</style></defs><path class="cls-1" d="M2.81,21.7a8.12,8.12,0,0,1-1-10.19L8,2.18a.63.63,0,0,1,.5-.26.66.66,0,0,1,.5.26l6.23,9.33A8.07,8.07,0,0,1,2.81,21.7Zm11.45-9.53L8.52,3.57l-5.74,8.6a6.89,6.89,0,1,0,11.48,0Z"/><path d="M18.5,9.84A.58.58,0,0,1,18.66,9h0A.65.65,0,0,1,19,8.89a.6.6,0,0,1,.5.27l4.14,6.24A5.58,5.58,0,0,1,19,24.08a5.07,5.07,0,0,1-1.36-.17h0a.54.54,0,0,1-.42-.66h0a.6.6,0,0,1,.72-.44h0a4.44,4.44,0,0,0,4.18-1.16h0a4.41,4.41,0,0,0,.54-5.55L18.5,9.85Z"/></svg>