<svg id="Layer_1" data-name="Layer 1" xmlns="http://www.w3.org/2000/svg" viewBox="0 0 45 45"><path d="M1,1.8a1,1,0,0,0-1,1V42.2a1,1,0,0,0,1,1H31.4a1,1,0,0,0,1-1V14.29a1,1,0,0,0-.3-.72L20.26,2.08a1,1,0,0,0-.7-.28Zm.8,1.8H18.9V14.3a1,1,0,0,0,1,1H30.6V41.4H1.8ZM20.7,5l8.74,8.48H20.7ZM15.09,17.89a2,2,0,0,0-1.68.95,2.89,2.89,0,0,0-.25,1.81,10.38,10.38,0,0,0,1.16,3.28,24,24,0,0,1-.87,2.89,28.31,28.31,0,0,1-1.9,3.52A25.64,25.64,0,0,0,9,31.51a4.19,4.19,0,0,0-1.6,1.55,1.62,1.62,0,0,0-.09,1.23,1.7,1.7,0,0,0,.85.88,2.19,2.19,0,0,0,2.21-.26,7.63,7.63,0,0,0,1.71-1.77c.28-.37.5-1,.77-1.42a26.84,26.84,0,0,1,2.52-1.14,29.48,29.48,0,0,1,3.82-.94,6.22,6.22,0,0,0,3.41,1.27,3.41,3.41,0,0,0,1.76-.32,1.8,1.8,0,0,0,.85-1.49,1.68,1.68,0,0,0-.49-1.17,2.29,2.29,0,0,0-1-.55,6.88,6.88,0,0,0-2.47-.08c-.5.05-1.16.31-1.71.42a1.7,1.7,0,0,1-.22-.15,14.76,14.76,0,0,1-3-3.63c0-.08,0-.14-.09-.22.19-.71.56-1.53.65-2.16a5.32,5.32,0,0,0-.07-2.3,2.06,2.06,0,0,0-.58-1A1.78,1.78,0,0,0,15.09,17.89ZM15,19.68h0a.37.37,0,0,1,0,.09,5.11,5.11,0,0,1,0,1c0-.11-.14-.3-.15-.4a1.55,1.55,0,0,1,0-.73S15,19.68,15,19.68ZM15.56,26a15.94,15.94,0,0,0,1.86,2.23c-.92.25-1.74.34-2.67.66-.2.06-.31.16-.5.23.27-.57.61-1,.86-1.59S15.37,26.53,15.56,26Z"/></svg>