<svg width="25" height="25" viewBox="0 0 25 25" fill="none" xmlns="http://www.w3.org/2000/svg">
<path d="M24.0228 14.7329L18.5354 14.9157L14.3283 12.5089L18.5354 10.0716L24.0228 10.2544H24.0533C24.5411 10.2544 24.9374 9.85833 24.9679 9.37087C24.9984 8.85295 24.602 8.45689 24.0838 8.42642L19.8158 8.30456L21.8278 4.52676C22.0717 4.06976 21.8888 3.52137 21.462 3.27764C21.0047 3.03392 20.456 3.21671 20.2121 3.64324L17.6208 8.48735L13.4138 10.9246V6.65939L16.3404 1.38874C16.5843 0.962218 16.4318 0.383362 15.9746 0.139633C15.5173 -0.104096 14.9685 0.0482345 14.7246 0.505227L12.4992 4.52676L10.2432 0.47476C9.99934 0.0482344 9.4506 -0.134563 8.99331 0.109166C8.56651 0.352895 8.38359 0.901286 8.62748 1.35828L11.5846 6.65939V10.9246L7.89582 8.79202L4.78627 3.61277C4.5119 3.18625 3.96315 3.03392 3.53635 3.30811C3.10955 3.58231 2.95712 4.1307 3.23149 4.55722L5.60939 8.51782L0.975546 8.42642C0.457287 8.42642 0.0609718 8.82248 0.0609718 9.34041C0.0609718 9.85833 0.457287 10.2544 0.975546 10.2544L6.98125 10.3763L10.67 12.5089L6.98125 14.6415L0.914574 14.7329C0.396315 14.7329 0 15.1594 0 15.6469C0 16.1648 0.426801 16.5609 0.914574 16.5609L5.54842 16.4695L3.17052 20.4301C2.89615 20.8566 3.04858 21.4355 3.47538 21.6792C3.62781 21.7706 3.78024 21.8011 3.93267 21.8011C4.23753 21.8011 4.54238 21.6487 4.7253 21.3441L7.83485 16.1648L11.5236 14.0322V18.8763L8.62748 23.5376C8.35311 23.9641 8.47505 24.543 8.93234 24.7867C9.35914 25.0609 9.93837 24.9391 10.1823 24.4821L12.4992 20.948L14.7856 24.5735C14.938 24.8477 15.2429 25 15.5478 25C15.7002 25 15.8831 24.9695 16.0355 24.8477C16.4623 24.5735 16.5843 24.0251 16.3404 23.5986L13.4138 18.9372V14.0931L17.6208 16.5304L20.2121 21.3745C20.3645 21.6792 20.6999 21.862 21.0352 21.862C21.1876 21.862 21.3401 21.8315 21.462 21.7401C21.9193 21.4964 22.0717 20.948 21.8278 20.491L19.8158 16.7132L24.1143 16.5609C24.6325 16.5304 25.0288 16.1344 24.9984 15.6164C24.9374 15.129 24.5411 14.7329 24.0228 14.7329Z" fill="#148EFF"/>
</svg>
