<svg width="25" height="25" viewBox="0 0 25 25" fill="none" xmlns="http://www.w3.org/2000/svg">
<path d="M22.757 17.6563V19.6513C22.757 19.6513 15.1995 19.7813 11.167 18.1813C7.85753 16.8683 1.98703 16.6563 1.98703 16.6563C1.77203 15.9463 1.64203 14.5763 2.26203 12.0963C3.23704 8.20625 2.76704 5.73125 2.76204 5.70625C2.73703 5.58125 2.80703 5.46125 2.92703 5.42125L4.42704 4.92125C4.49704 4.89625 4.57204 4.90625 4.63204 4.94125C4.69204 4.97625 4.73704 5.03625 4.75204 5.10625L5.19704 7.33125L7.73204 6.48625C7.64704 5.74125 7.47704 3.22225 8.79104 1.02775C8.83604 0.95275 8.91954 0.90625 9.00704 0.90625L12.007 0.90625C12.145 0.90625 12.257 1.01825 12.257 1.15625V2.65625C12.257 2.71125 10.782 4.75125 11.252 7.10625C11.342 7.55625 11.432 8.00625 11.547 8.44125L9.34704 9.18125C9.08704 9.27125 8.94704 9.55125 9.03204 9.81625C9.10204 10.0263 9.38703 10.2188 9.66704 10.1313L11.847 9.40125C11.997 9.79125 12.182 10.1663 12.422 10.5163L10.652 12.3063C10.457 12.5013 10.4515 12.8218 10.657 13.0113C10.9495 13.2813 11.267 13.1063 11.362 13.0063L13.077 11.2763C13.422 11.6013 13.842 11.9013 14.362 12.1613L13.107 13.8613C12.942 14.0813 12.987 14.3963 13.212 14.5563C13.4495 14.7188 13.812 14.5863 13.907 14.4513L15.312 12.5563C15.522 12.6363 15.747 12.7013 15.987 12.7663L16.007 14.6613C16.012 14.9363 16.232 15.1563 16.507 15.1563H16.512C16.787 15.1513 17.012 14.9263 17.007 14.6513L16.992 13.0163C18.487 13.4163 18.722 13.9263 18.752 14.4963C19.157 14.6713 21.362 15.1563 21.682 15.4813C22.407 16.2013 22.757 16.9113 22.757 17.6563ZM23.012 23.3438C22.562 23.9138 22.167 24.0938 21.007 24.0938H3.00703C2.94203 24.0938 1.56203 22.7738 1.56203 22.7738C1.49203 22.7038 1.46703 22.6038 1.50203 22.5138L3.01203 17.8438C3.01203 17.8438 6.44954 17.8438 8.51204 18.8438C7.68204 19.7288 7.19704 20.3688 7.34704 20.7238C7.44204 20.9638 7.85704 21.0938 8.50704 21.0938H13.507C13.567 21.0938 15.012 21.0313 15.012 20.1563C15.097 20.1713 19.137 20.7813 23.012 20.6563C23.012 20.6563 23.527 21.9038 23.512 21.8438C23.505 21.8157 23.522 22.6888 23.012 23.3438Z" fill="#148EFF"/>
</svg>
