<svg width="25" height="25" viewBox="0 0 25 25" fill="none" xmlns="http://www.w3.org/2000/svg">
<g clip-path="url(#clip0_1127_220033)">
<path d="M2.95365 10.7321C2.56281 11.123 2.56281 11.7555 2.95365 12.1464L12.8531 22.0458C13.244 22.4367 13.8765 22.4367 14.2674 22.0458L14.9745 21.3387C15.3653 20.9479 15.3653 20.3154 14.9745 19.9245L11.0854 16.0354L16.0351 11.0857L19.9242 14.9748C20.3151 15.3656 20.9476 15.3656 21.3384 14.9748L22.0455 14.2677C22.4364 13.8768 22.4364 13.2443 22.0455 12.8535L12.146 2.95396C11.7552 2.56312 11.1227 2.56312 10.7318 2.95396L10.0247 3.66107C9.63388 4.05191 9.63388 4.68444 10.0247 5.07528L13.9138 8.96437L8.96406 13.9141L5.07497 10.025C4.68413 9.63419 4.0516 9.63419 3.66076 10.025L2.95365 10.7321ZM1.89299 14.6212C1.50215 15.0121 1.50215 15.6446 1.89299 16.0354L8.96406 23.1065C9.3549 23.4973 9.98743 23.4973 10.3783 23.1065L11.4389 22.0458L2.95365 13.5606L1.89299 14.6212ZM13.5603 2.95396L22.0455 11.4392L23.1062 10.3786C23.497 9.98774 23.497 9.35521 23.1062 8.96437L16.0351 1.8933C15.6443 1.50246 15.0118 1.50246 14.6209 1.8933L13.5603 2.95396ZM2.95365 19.9245C2.75892 20.1193 2.75892 20.4369 2.95365 20.6316L4.36787 22.0458C4.5626 22.2406 4.88024 22.2406 5.07497 22.0458L5.78208 21.3387L3.66076 19.2174L2.95365 19.9245ZM19.2171 3.66107L21.3384 5.78239L22.0455 5.07528C22.2403 4.88055 22.2403 4.56291 22.0455 4.36818L20.6313 2.95396C20.4366 2.75923 20.1189 2.75923 19.9242 2.95396L19.2171 3.66107Z" fill="#148EFF"/>
</g>
<defs>
<clipPath id="clip0_1127_220033">
<rect width="25" height="25" fill="white"/>
</clipPath>
</defs>
</svg>
