<svg width="25" height="25" viewBox="0 0 25 25" fill="none" xmlns="http://www.w3.org/2000/svg">
<path d="M0.980323 0.000486786C0.615556 -0.0108887 0.262398 0.188193 0.0999155 0.531631C-0.116728 0.990769 0.0870679 1.53358 0.557191 1.74517C0.693295 1.80675 3.31169 2.95563 8.12967 3.44221V1.59868C3.75122 1.12857 1.37183 0.0978458 1.34248 0.0850412C1.22495 0.0321459 1.10191 0.00427866 0.980323 0.000486786ZM10.9392 0.000486786C10.0788 0.000486786 9.37834 0.68401 9.37834 1.52485V4.87844H15.6217V1.52485C15.6217 0.68401 14.9212 0.000486786 14.0608 0.000486786H10.9392ZM24.0185 0.000486786C23.897 0.00437391 23.7744 0.0321459 23.6575 0.0850412C23.6275 0.0984555 21.2681 1.13278 16.8703 1.60107V3.44102C21.6883 2.95444 24.3067 1.80614 24.4428 1.74517C24.9129 1.53358 25.1167 0.990769 24.9001 0.531631C24.7376 0.187278 24.3829 -0.0111746 24.0185 0.000486786ZM9.01739 6.09793C7.34418 7.96741 6.25667 10.9734 6.25667 13.7197C6.25667 21.4708 11.7891 24.7384 12.0244 24.8738C12.1712 24.9579 12.3358 25 12.5 25C12.6642 25 12.8288 24.9579 12.9756 24.8738C13.2109 24.7384 18.7433 21.4708 18.7433 13.7197C18.7433 10.9734 17.6558 7.96741 15.9826 6.09793H9.01739ZM4.0715 9.14665C3.82313 9.14665 3.58493 9.24301 3.4093 9.41454C3.23367 9.58606 3.135 9.8187 3.135 10.0613C3.135 10.3038 3.23367 10.5365 3.4093 10.708C3.58493 10.8795 3.82313 10.9759 4.0715 10.9759C4.31988 10.9759 4.55808 10.8795 4.73371 10.708C4.90934 10.5365 5.008 10.3038 5.008 10.0613C5.008 9.8187 4.90934 9.58606 4.73371 9.41454C4.55808 9.24301 4.31988 9.14665 4.0715 9.14665ZM20.9285 9.14665C20.6801 9.14665 20.4419 9.24301 20.2663 9.41454C20.0907 9.58606 19.992 9.8187 19.992 10.0613C19.992 10.3038 20.0907 10.5365 20.2663 10.708C20.4419 10.8795 20.6801 10.9759 20.9285 10.9759C21.1769 10.9759 21.4151 10.8795 21.5907 10.708C21.7663 10.5365 21.865 10.3038 21.865 10.0613C21.865 9.8187 21.7663 9.58606 21.5907 9.41454C21.4151 9.24301 21.1769 9.14665 20.9285 9.14665ZM0.949838 12.8051C0.82574 12.8034 0.702532 12.8258 0.587372 12.871C0.472212 12.9162 0.367398 12.9833 0.279021 13.0684C0.190644 13.1535 0.120466 13.2549 0.0725665 13.3667C0.0246667 13.4785 0 13.5985 0 13.7197C0 13.8409 0.0246667 13.9609 0.0725665 14.0728C0.120466 14.1846 0.190644 14.286 0.279021 14.3711C0.367398 14.4562 0.472212 14.5233 0.587372 14.5685C0.702532 14.6137 0.82574 14.6361 0.949838 14.6343H3.44717C3.57127 14.6361 3.69448 14.6137 3.80964 14.5685C3.9248 14.5233 4.02961 14.4562 4.11799 14.3711C4.20636 14.286 4.27654 14.1846 4.32444 14.0728C4.37234 13.9609 4.39701 13.8409 4.39701 13.7197C4.39701 13.5985 4.37234 13.4785 4.32444 13.3667C4.27654 13.2549 4.20636 13.1535 4.11799 13.0684C4.02961 12.9833 3.9248 12.9162 3.80964 12.871C3.69448 12.8258 3.57127 12.8034 3.44717 12.8051H0.949838ZM21.5528 12.8051C21.4287 12.8034 21.3055 12.8258 21.1904 12.871C21.0752 12.9162 20.9704 12.9833 20.882 13.0684C20.7936 13.1535 20.7235 13.2549 20.6756 13.3667C20.6277 13.4785 20.603 13.5985 20.603 13.7197C20.603 13.8409 20.6277 13.9609 20.6756 14.0728C20.7235 14.1846 20.7936 14.286 20.882 14.3711C20.9704 14.4562 21.0752 14.5233 21.1904 14.5685C21.3055 14.6137 21.4287 14.6361 21.5528 14.6343H24.0502C24.1743 14.6361 24.2975 14.6137 24.4126 14.5685C24.5278 14.5233 24.6326 14.4562 24.721 14.3711C24.8094 14.286 24.8795 14.1846 24.9274 14.0728C24.9753 13.9609 25 13.8409 25 13.7197C25 13.5985 24.9753 13.4785 24.9274 13.3667C24.8795 13.2549 24.8094 13.1535 24.721 13.0684C24.6326 12.9833 24.5278 12.9162 24.4126 12.871C24.2975 12.8258 24.1743 12.8034 24.0502 12.8051H21.5528ZM4.0715 16.4636C3.82313 16.4636 3.58493 16.5599 3.4093 16.7315C3.23367 16.903 3.135 17.1356 3.135 17.3782C3.135 17.6208 3.23367 17.8534 3.4093 18.0249C3.58493 18.1965 3.82313 18.2928 4.0715 18.2928C4.31988 18.2928 4.55808 18.1965 4.73371 18.0249C4.90934 17.8534 5.008 17.6208 5.008 17.3782C5.008 17.1356 4.90934 16.903 4.73371 16.7315C4.55808 16.5599 4.31988 16.4636 4.0715 16.4636ZM20.9285 16.4636C20.6801 16.4636 20.4419 16.5599 20.2663 16.7315C20.0907 16.903 19.992 17.1356 19.992 17.3782C19.992 17.6208 20.0907 17.8534 20.2663 18.0249C20.4419 18.1965 20.6801 18.2928 20.9285 18.2928C21.1769 18.2928 21.4151 18.1965 21.5907 18.0249C21.7663 17.8534 21.865 17.6208 21.865 17.3782C21.865 17.1356 21.7663 16.903 21.5907 16.7315C21.4151 16.5599 21.1769 16.4636 20.9285 16.4636Z" fill="#148EFF"/>
</svg>
